<?xml version="1.0" encoding="iso-8859-1"?>
<!-- Generator: Adobe Illustrator 19.0.0, SVG Export Plug-In . SVG Version: 6.00 Build 0)  -->
<svg version="1.1" id="Capa_1" xmlns="http://www.w3.org/2000/svg" xmlns:xlink="http://www.w3.org/1999/xlink" x="0px" y="0px"
	 viewBox="0 0 501.355 501.355" style="enable-background:new 0 0 501.355 501.355;" xml:space="preserve">
<g>
	<g>
		<path d="M497.344,242.227l-106.667-85.333c-3.221-2.56-7.573-3.072-11.285-1.28c-3.691,1.792-6.037,5.525-6.037,9.621v170.667
			c0,4.117,2.347,7.851,6.037,9.621c1.493,0.704,3.072,1.045,4.629,1.045c2.368,0,4.736-0.789,6.656-2.325l106.667-85.333
			c2.539-2.048,4.011-5.099,4.011-8.341C501.355,247.325,499.861,244.253,497.344,242.227z M394.688,313.715V187.443l78.912,63.147
			L394.688,313.715z"/>
	</g>
</g>
<g>
	<g>
		<path d="M121.963,155.613c-3.733-1.792-8.085-1.28-11.285,1.28L4.011,242.227C1.472,244.275,0,247.325,0,250.568
			s1.493,6.315,4.011,8.341l106.667,85.333c1.941,1.536,4.309,2.325,6.677,2.325c1.557,0,3.136-0.341,4.629-1.045
			c3.691-1.792,6.037-5.525,6.037-9.621V165.235C128.021,161.139,125.675,157.405,121.963,155.613z M106.688,313.693l-78.912-63.125
			l78.912-63.125V313.693z"/>
	</g>
</g>
<g>
	<g>
		<path d="M340.267,373.939c-1.771-3.691-5.504-6.037-9.6-6.037H160c-4.096,0-7.829,2.347-9.6,6.037
			c-1.792,3.691-1.28,8.085,1.28,11.285l85.333,106.667c2.027,2.539,5.099,4.011,8.341,4.011s6.315-1.472,8.299-4.011
			l85.333-106.667C341.568,382.024,342.059,377.629,340.267,373.939z M245.355,468.168l-63.147-78.933h126.293L245.355,468.168z"/>
	</g>
</g>
<g>
	<g>
		<path d="M339.029,115.912L253.696,9.245c-4.032-5.056-12.629-5.056-16.661,0l-85.333,106.667c-2.581,3.2-3.072,7.595-1.28,11.285
			c1.771,3.691,5.504,6.037,9.6,6.037h170.667c4.096,0,7.829-2.347,9.621-6.037C342.101,123.507,341.589,119.112,339.029,115.912z
			 M182.208,111.901l63.147-78.933l63.147,78.933H182.208z"/>
	</g>
</g>
<g>
	<g>
		<path d="M245.355,175.901c-41.173,0-74.667,33.493-74.667,74.667s33.493,74.667,74.667,74.667s74.667-33.493,74.667-74.667
			S286.528,175.901,245.355,175.901z M245.355,303.901c-29.419,0-53.333-23.936-53.333-53.333s23.915-53.333,53.333-53.333
			c29.419,0,53.333,23.936,53.333,53.333S274.773,303.901,245.355,303.901z"/>
	</g>
</g>
<g>
</g>
<g>
</g>
<g>
</g>
<g>
</g>
<g>
</g>
<g>
</g>
<g>
</g>
<g>
</g>
<g>
</g>
<g>
</g>
<g>
</g>
<g>
</g>
<g>
</g>
<g>
</g>
<g>
</g>
</svg>
