<?xml version="1.0" encoding="utf-8"?>
<!-- Generator: Adobe Illustrator 16.0.0, SVG Export Plug-In . SVG Version: 6.00 Build 0)  -->
<!DOCTYPE svg PUBLIC "-//W3C//DTD SVG 1.1//EN" "http://www.w3.org/Graphics/SVG/1.1/DTD/svg11.dtd">
<svg version="1.1" id="Layer_1" xmlns="http://www.w3.org/2000/svg" xmlns:xlink="http://www.w3.org/1999/xlink" x="0px" y="0px"
	 width="612px" height="792px" viewBox="0 0 612 792" enable-background="new 0 0 612 792" xml:space="preserve">
<g>
	<path fill-rule="evenodd" clip-rule="evenodd" d="M34.156,316.177c16.039-0.008,32.077-0.018,48.116-0.018
		c1.15,0,2.564-0.316,3.374,0.229c0.751,0.508,0.885,1.961,1.244,3.016c10.65,31.292,21.295,62.586,31.938,93.881
		c1.877,5.518,3.747,11.037,5.625,16.555c0.109,0.321,0.269,0.625,0.557,1.287c0.277-0.707,0.445-1.078,0.569-1.463
		c5.042-15.655,10.083-31.311,15.119-46.969c6.991-21.738,13.984-43.476,20.947-65.223c0.314-0.98,0.71-1.352,1.808-1.348
		c16.279,0.043,32.558,0.029,48.836,0.029c0.43,0,0.859,0,1.347,0c0,55.629,0,111.123,0,166.691c-11.398,0-22.739,0-34.241,0
		c0-39.325,0-78.645,0-117.964c-0.115-0.032-0.229-0.064-0.344-0.097c-0.158,0.359-0.341,0.711-0.47,1.08
		c-7.578,21.881-15.154,43.76-22.723,65.643c-5.781,16.713-11.561,33.427-17.302,50.153c-0.348,1.013-0.82,1.292-1.867,1.286
		c-8.559-0.048-17.119-0.042-25.678-0.004c-0.904,0.004-1.304-0.245-1.608-1.119c-8.899-25.562-17.831-51.112-26.756-76.664
		c-4.436-12.701-8.871-25.402-13.31-38.102c-0.136-0.389-0.318-0.76-0.763-1.083c0,38.921,0,77.842,0,116.944
		c-0.616,0-1.079,0-1.542,0c-10.479,0-20.958,0-31.438,0.003c-0.479,0-0.957,0.036-1.436,0.055
		C34.156,427.376,34.156,371.776,34.156,316.177z"/>
	<path fill-rule="evenodd" clip-rule="evenodd" d="M310.156,305.616c0.287,0.326,0.559,0.67,0.865,0.977
		c30.512,30.518,61.027,61.033,91.551,91.541c0.332,0.332,0.785,0.545,1.182,0.814c0.002,0.18,0.004,0.359,0.006,0.539
		c-0.398,0.268-0.854,0.479-1.186,0.811c-30.523,30.507-61.039,61.022-91.551,91.541c-0.307,0.307-0.579,0.65-0.867,0.979
		c-0.08,0-0.16,0-0.24,0c-0.271-0.293-0.533-0.594-0.814-0.875c-30.533-30.535-61.067-61.07-91.607-91.598
		c-0.336-0.336-0.759-0.585-1.142-0.875c-0.072-0.199-0.144-0.398-0.215-0.598c0.454-0.258,0.993-0.432,1.349-0.788
		c30.547-30.521,61.081-61.056,91.614-91.592c0.281-0.282,0.545-0.583,0.816-0.876C309.996,305.616,310.076,305.616,310.156,305.616
		z M365.652,399.209c0-9.958,0.012-19.915-0.027-29.872c-0.002-0.602-0.246-1.364-0.654-1.777
		c-7.793-7.873-15.617-15.712-23.473-23.521c-0.418-0.416-1.154-0.723-1.744-0.724c-19.834-0.037-39.669-0.036-59.503-0.002
		c-0.554,0.001-1.245,0.296-1.64,0.688c-7.861,7.804-15.697,15.634-23.497,23.498c-0.44,0.444-0.751,1.233-0.752,1.862
		c-0.039,19.914-0.039,39.83,0.001,59.744c0.001,0.626,0.332,1.408,0.774,1.854c7.743,7.809,15.536,15.568,23.289,23.367
		c0.622,0.625,1.238,0.842,2.097,0.841c19.674-0.021,39.347-0.021,59.021-0.001c0.857,0.002,1.477-0.209,2.1-0.836
		c7.697-7.742,15.418-15.46,23.156-23.16c0.613-0.611,0.877-1.212,0.873-2.088C365.643,419.124,365.652,409.167,365.652,399.209z
		 M311.887,326.185c0.006-1.047-0.918-2.014-1.951-2.045c-1.023-0.031-2.006,0.91-2.044,1.959c-0.041,1.115,0.905,2.092,2.021,2.086
		C310.984,328.179,311.88,327.271,311.887,326.185z M236.943,397.158c-1.079-0.017-1.999,0.861-2.03,1.938
		c-0.031,1.062,0.851,2,1.926,2.048c1.119,0.05,2.08-0.878,2.079-2.005C238.916,398.054,238.041,397.175,236.943,397.158z
		 M384.848,399.193c0.023-1.095-0.822-1.998-1.906-2.038c-1.098-0.039-1.992,0.791-2.039,1.893
		c-0.049,1.162,0.818,2.092,1.957,2.098C383.953,401.151,384.826,400.294,384.848,399.193z M309.9,470.121
		c-1.082,0.003-1.98,0.888-1.996,1.966c-0.015,1.141,0.908,2.051,2.049,2.02c1.094-0.029,1.945-0.918,1.934-2.014
		C311.873,471.009,310.977,470.118,309.9,470.121z"/>
	<path fill-rule="evenodd" clip-rule="evenodd" d="M406.418,482.919c0-55.654,0-111.123,0-166.766c0.465,0,0.889,0,1.311,0
		c23.879,0,47.758-0.064,71.637,0.025c13.895,0.053,27.141,2.977,39.299,9.937c13.352,7.644,22.477,18.962,28.346,33.05
		c3.771,9.051,5.861,18.507,6.479,28.256c0.348,5.494,0.225,11.018,0.316,16.527c0.002,0.152,0.031,0.305,0.059,0.572
		c1.859-0.209,3.666-0.471,5.48-0.605c7.918-0.59,15.777-0.307,23.289,2.542c9.309,3.528,14.881,10.182,16.172,20.194
		c0.061,0.473,0.068,0.953,0.107,1.531c-6.705,0-13.354,0-19.936,0c-0.395-1.408-0.695-2.809-1.18-4.143
		c-0.668-1.838-1.955-3.203-3.721-4.051c-5.283-2.535-10.811-2.78-16.367-1.287c-4.041,1.085-5.939,4.269-4.887,7.879
		c0.334,1.152,1.154,2.291,2.045,3.127c1.967,1.85,4.506,2.726,7.074,3.354c5.777,1.415,11.594,2.677,17.371,4.097
		c3.957,0.972,7.891,2.076,11.467,4.112c8.891,5.065,10.938,11.631,10.119,19.975c-1.08,11.009-7.533,17.849-17.654,21.036
		c-12.094,3.809-24.359,3.614-36.412-0.535c-5.426-1.867-9.965-5.148-13.076-10.044c-1.268-1.992-2.02-4.312-2.986-6.491
		c-0.158-0.355-0.221-0.753-0.328-1.135c-2.287,1.832-4.457,3.721-6.777,5.404c-9.572,6.951-20.271,11.148-32.008,12.496
		c-5.07,0.584-10.199,0.881-15.303,0.901c-22.758,0.094-45.518,0.04-68.275,0.04C407.564,482.919,407.053,482.919,406.418,482.919z
		 M443.15,346.99c0,35.099,0,70.03,0,105.039c0.566,0,1.041,0,1.516,0c10.121,0,20.24,0.055,30.359-0.033
		c3.025-0.026,6.08-0.247,9.062-0.729c10.469-1.693,18.84-6.817,24.709-15.748c4.355-6.629,6.75-13.982,7.779-21.816
		c0.873-6.648,0.916-13.316,0.43-19.986c-0.512-6.994-1.576-13.893-4.037-20.506c-3.869-10.4-10.639-18.087-21.025-22.364
		c-6.877-2.831-14.104-3.769-21.461-3.837c-8.639-0.08-17.279-0.019-25.918-0.019C444.131,346.99,443.695,346.99,443.15,346.99z
		 M549.625,457.806c0.072,0.562,0.143,1.031,0.191,1.502c0.436,4.201,2.67,7.215,6.285,9.203c3.842,2.113,8.027,2.555,12.322,2.113
		c2.857-0.294,5.555-1.102,7.932-2.793c4.383-3.119,5.344-10.289-1.09-13.207c-1.848-0.838-3.76-1.6-5.715-2.116
		c-6.057-1.602-12.16-3.029-18.223-4.607c-2.49-0.647-4.924-1.507-7.195-2.212c-2.609,4.041-5.189,8.039-7.822,12.117
		C540.754,457.806,545.174,457.806,549.625,457.806z"/>
</g>
</svg>
