<?xml version="1.0" encoding="utf-8"?>
<!-- Generator: Adobe Illustrator 15.1.0, SVG Export Plug-In . SVG Version: 6.00 Build 0)  -->
<!DOCTYPE svg PUBLIC "-//W3C//DTD SVG 1.1//EN" "http://www.w3.org/Graphics/SVG/1.1/DTD/svg11.dtd">
<svg version="1.1" id="Layer_1" xmlns="http://www.w3.org/2000/svg" xmlns:xlink="http://www.w3.org/1999/xlink" x="0px" y="0px"
	 width="2006.93px" height="2006.93px" viewBox="0 0 2006.93 2006.93" enable-background="new 0 0 2006.93 2006.93"
	 xml:space="preserve">
<path fill="#FFFFFF" d="M1.021,1003.243l36.078,36.079l930.041,930.041l36.078,36.078l31.25-31.248l4.829-4.83l930.04-930.04
	l36.079-36.079l-36.079-36.079l-930.04-930.041l-36.079-36.079L1.021,1003.243z M129.301,947.12l2.016,114.262l-58.139-58.138
	L129.301,947.12z M1054.804,1881.699l-51.586,51.585l-56.123-56.124h112.246L1054.804,1881.699z M1590.741,1345.761
	l-246.775,246.775H662.47L415.94,1346.007l-2.016-683.511L662.47,413.951l683.512,2.016l246.529,246.529v681.496L1590.741,1345.761z
	 M1877.136,1059.367l-0.002-112.247l56.125,56.124L1877.136,1059.367z M1061.356,131.342l-114.261-2.016l56.122-56.123
	L1061.356,131.342z"/>
</svg>
